<svg width="1600" height="900" viewBox="0 0 1600 900" fill="none" xmlns="http://www.w3.org/2000/svg">
  <rect width="1600" height="900" fill="#F5F8FB"/>
  <rect x="96" y="96" width="1408" height="708" rx="36" fill="url(#g2)"/>
  <rect x="170" y="180" width="420" height="500" rx="24" fill="#FFFFFF" fill-opacity="0.92"/>
  <rect x="650" y="180" width="780" height="140" rx="24" fill="#FFFFFF" fill-opacity="0.92"/>
  <rect x="650" y="350" width="780" height="140" rx="24" fill="#FFFFFF" fill-opacity="0.92"/>
  <rect x="650" y="520" width="780" height="140" rx="24" fill="#FFFFFF" fill-opacity="0.92"/>
  <rect x="230" y="250" width="300" height="20" rx="10" fill="#D9E6F8"/>
  <rect x="230" y="300" width="220" height="16" rx="8" fill="#EAF1FB"/>
  <rect x="730" y="235" width="360" height="22" rx="11" fill="#D9E6F8"/>
  <rect x="730" y="404" width="360" height="22" rx="11" fill="#D9E6F8"/>
  <rect x="730" y="574" width="360" height="22" rx="11" fill="#D9E6F8"/>
  <rect x="1240" y="224" width="120" height="44" rx="22" fill="#D84343" fill-opacity="0.9"/>
  <rect x="1240" y="394" width="120" height="44" rx="22" fill="#2F6BD3" fill-opacity="0.88"/>
  <rect x="1240" y="564" width="120" height="44" rx="22" fill="#3CA57B" fill-opacity="0.9"/>
  <defs>
    <linearGradient id="g2" x1="96" y1="96" x2="1504" y2="804" gradientUnits="userSpaceOnUse">
      <stop stop-color="#E9F1FA"/>
      <stop offset="1" stop-color="#DCE9F8"/>
    </linearGradient>
  </defs>
</svg>
