<svg width="1600" height="900" viewBox="0 0 1600 900" fill="none" xmlns="http://www.w3.org/2000/svg">
  <rect width="1600" height="900" fill="#F4F8FC"/>
  <rect x="96" y="96" width="1408" height="708" rx="36" fill="url(#g5)"/>
  <rect x="170" y="180" width="900" height="520" rx="28" fill="#FFFFFF" fill-opacity="0.93"/>
  <rect x="1130" y="180" width="300" height="520" rx="28" fill="#FFFFFF" fill-opacity="0.93"/>
  <rect x="240" y="250" width="280" height="280" rx="24" fill="#E9F1FB"/>
  <circle cx="380" cy="360" r="84" fill="#D8E5F8"/>
  <rect x="560" y="250" width="420" height="24" rx="12" fill="#D8E5F8"/>
  <rect x="560" y="308" width="360" height="16" rx="8" fill="#E9F1FB"/>
  <rect x="560" y="350" width="320" height="16" rx="8" fill="#E9F1FB"/>
  <rect x="560" y="392" width="300" height="16" rx="8" fill="#E9F1FB"/>
  <path d="M1210 430L1270 490L1360 380" stroke="#3CA57B" stroke-width="22" stroke-linecap="round" stroke-linejoin="round"/>
  <rect x="1190" y="570" width="180" height="54" rx="27" fill="#D84343" fill-opacity="0.88"/>
  <defs>
    <linearGradient id="g5" x1="96" y1="96" x2="1504" y2="804" gradientUnits="userSpaceOnUse">
      <stop stop-color="#EAF1FA"/>
      <stop offset="1" stop-color="#DDE8F7"/>
    </linearGradient>
  </defs>
</svg>
