<svg width="1600" height="900" viewBox="0 0 1600 900" fill="none" xmlns="http://www.w3.org/2000/svg">
  <rect width="1600" height="900" fill="#F6F8FB"/>
  <rect x="70" y="70" width="1460" height="760" rx="42" fill="url(#surface)"/>

  <rect x="170" y="170" width="560" height="560" rx="30" fill="#FFFFFF" fill-opacity="0.93"/>
  <rect x="790" y="170" width="650" height="170" rx="30" fill="#FFFFFF" fill-opacity="0.93"/>
  <rect x="790" y="390" width="650" height="340" rx="30" fill="#FFFFFF" fill-opacity="0.93"/>

  <rect x="260" y="250" width="270" height="26" rx="13" fill="#D6E2F4"/>
  <rect x="260" y="304" width="390" height="17" rx="8.5" fill="#E4ECF8"/>
  <rect x="260" y="340" width="350" height="17" rx="8.5" fill="#E4ECF8"/>

  <rect x="860" y="238" width="330" height="22" rx="11" fill="#D6E2F4"/>
  <rect x="860" y="282" width="220" height="16" rx="8" fill="#E4ECF8"/>

  <rect x="860" y="468" width="430" height="22" rx="11" fill="#D6E2F4"/>
  <rect x="860" y="512" width="320" height="16" rx="8" fill="#E4ECF8"/>
  <rect x="860" y="546" width="290" height="16" rx="8" fill="#E4ECF8"/>

  <path d="M260 612C340 546 420 512 504 548C574 579 628 570 680 520" stroke="#C83232" stroke-width="16" stroke-linecap="round"/>
  <circle cx="260" cy="612" r="10" fill="#C83232"/>
  <circle cx="504" cy="548" r="10" fill="#C83232"/>
  <circle cx="680" cy="520" r="10" fill="#C83232"/>

  <circle cx="1290" cy="580" r="94" fill="#E5ECF8"/>
  <path d="M1230 580L1270 620L1360 530" stroke="#1E854E" stroke-width="18" stroke-linecap="round" stroke-linejoin="round"/>

  <defs>
    <linearGradient id="surface" x1="70" y1="70" x2="1530" y2="830" gradientUnits="userSpaceOnUse">
      <stop stop-color="#E8F0FA"/>
      <stop offset="0.6" stop-color="#DEE8F7"/>
      <stop offset="1" stop-color="#D6E1F3"/>
    </linearGradient>
  </defs>
</svg>
