<svg width="1600" height="900" viewBox="0 0 1600 900" fill="none" xmlns="http://www.w3.org/2000/svg">
  <rect width="1600" height="900" fill="#F4F7FB"/>
  <rect x="72" y="72" width="1456" height="756" rx="36" fill="url(#g1)"/>
  <rect x="140" y="160" width="620" height="540" rx="24" fill="#FFFFFF" fill-opacity="0.9"/>
  <rect x="206" y="236" width="240" height="24" rx="12" fill="#D8E2F3"/>
  <rect x="206" y="292" width="480" height="18" rx="9" fill="#E8EEF8"/>
  <rect x="206" y="330" width="430" height="18" rx="9" fill="#E8EEF8"/>
  <rect x="206" y="368" width="390" height="18" rx="9" fill="#E8EEF8"/>
  <rect x="830" y="160" width="620" height="240" rx="24" fill="#FFFFFF" fill-opacity="0.9"/>
  <rect x="900" y="236" width="350" height="24" rx="12" fill="#D8E2F3"/>
  <rect x="900" y="292" width="200" height="18" rx="9" fill="#E8EEF8"/>
  <rect x="830" y="460" width="620" height="240" rx="24" fill="#FFFFFF" fill-opacity="0.9"/>
  <path d="M910 610L1010 550L1110 585L1210 520L1310 560" stroke="#D84343" stroke-width="16" stroke-linecap="round" stroke-linejoin="round"/>
  <circle cx="910" cy="610" r="12" fill="#D84343"/>
  <circle cx="1010" cy="550" r="12" fill="#D84343"/>
  <circle cx="1110" cy="585" r="12" fill="#D84343"/>
  <circle cx="1210" cy="520" r="12" fill="#D84343"/>
  <circle cx="1310" cy="560" r="12" fill="#D84343"/>
  <defs>
    <linearGradient id="g1" x1="72" y1="72" x2="1528" y2="828" gradientUnits="userSpaceOnUse">
      <stop stop-color="#EAF1FB"/>
      <stop offset="1" stop-color="#DEE8F8"/>
    </linearGradient>
  </defs>
</svg>
