<svg width="1600" height="900" viewBox="0 0 1600 900" fill="none" xmlns="http://www.w3.org/2000/svg">
  <rect width="1600" height="900" fill="#F4F8FC"/>
  <rect x="96" y="96" width="1408" height="708" rx="36" fill="url(#g3)"/>
  <rect x="170" y="180" width="560" height="520" rx="28" fill="#FFFFFF" fill-opacity="0.92"/>
  <rect x="770" y="180" width="660" height="230" rx="28" fill="#FFFFFF" fill-opacity="0.92"/>
  <rect x="770" y="470" width="660" height="230" rx="28" fill="#FFFFFF" fill-opacity="0.92"/>
  <rect x="250" y="250" width="180" height="340" rx="16" fill="#E9EFFA"/>
  <rect x="460" y="340" width="180" height="250" rx="16" fill="#D9E6F8"/>
  <rect x="860" y="248" width="320" height="24" rx="12" fill="#D9E6F8"/>
  <rect x="860" y="304" width="500" height="16" rx="8" fill="#EAF1FB"/>
  <rect x="860" y="538" width="320" height="24" rx="12" fill="#D9E6F8"/>
  <rect x="860" y="594" width="500" height="16" rx="8" fill="#EAF1FB"/>
  <circle cx="1300" cy="250" r="56" fill="#D84343" fill-opacity="0.14"/>
  <circle cx="1230" cy="610" r="72" fill="#2F6BD3" fill-opacity="0.14"/>
  <defs>
    <linearGradient id="g3" x1="96" y1="96" x2="1504" y2="804" gradientUnits="userSpaceOnUse">
      <stop stop-color="#EAF1FA"/>
      <stop offset="1" stop-color="#DDE8F7"/>
    </linearGradient>
  </defs>
</svg>
