<svg width="1600" height="900" viewBox="0 0 1600 900" fill="none" xmlns="http://www.w3.org/2000/svg">
  <rect width="1600" height="900" fill="#F8F9FB"/>
  <rect x="95" y="95" width="1410" height="710" rx="38" fill="url(#heroBg)"/>

  <rect x="190" y="180" width="540" height="540" rx="28" fill="#FFFFFF" fill-opacity="0.92"/>
  <rect x="790" y="180" width="620" height="190" rx="28" fill="#FFFFFF" fill-opacity="0.92"/>
  <rect x="790" y="405" width="620" height="315" rx="28" fill="#FFFFFF" fill-opacity="0.92"/>

  <circle cx="460" cy="445" r="150" fill="#DCE6F6"/>
  <circle cx="460" cy="445" r="96" fill="#1F4C9C" fill-opacity="0.9"/>
  <circle cx="460" cy="445" r="42" fill="#F3F6FB"/>

  <rect x="860" y="245" width="330" height="22" rx="11" fill="#D5E2F4"/>
  <rect x="860" y="287" width="245" height="16" rx="8" fill="#E3ECF8"/>

  <rect x="860" y="490" width="420" height="22" rx="11" fill="#D5E2F4"/>
  <rect x="860" y="534" width="350" height="16" rx="8" fill="#E3ECF8"/>
  <rect x="860" y="568" width="280" height="16" rx="8" fill="#E3ECF8"/>

  <rect x="1240" y="463" width="120" height="44" rx="22" fill="#C83232" fill-opacity="0.9"/>
  <rect x="1240" y="520" width="120" height="44" rx="22" fill="#1F4C9C" fill-opacity="0.9"/>

  <defs>
    <linearGradient id="heroBg" x1="95" y1="95" x2="1505" y2="805" gradientUnits="userSpaceOnUse">
      <stop stop-color="#EAF1FA"/>
      <stop offset="1" stop-color="#DBE6F5"/>
    </linearGradient>
  </defs>
</svg>
