<svg width="1600" height="900" viewBox="0 0 1600 900" fill="none" xmlns="http://www.w3.org/2000/svg">
  <rect width="1600" height="900" fill="#F7F8FA"/>
  <rect x="80" y="80" width="1440" height="740" rx="40" fill="url(#bg)"/>
  <rect x="180" y="170" width="640" height="560" rx="28" fill="#FFFFFF" fill-opacity="0.94"/>
  <rect x="860" y="170" width="560" height="250" rx="28" fill="#FFFFFF" fill-opacity="0.94"/>
  <rect x="860" y="460" width="560" height="270" rx="28" fill="#FFFFFF" fill-opacity="0.94"/>

  <rect x="250" y="250" width="320" height="24" rx="12" fill="#D7E2F3"/>
  <rect x="250" y="302" width="490" height="16" rx="8" fill="#E5ECF8"/>
  <rect x="250" y="338" width="430" height="16" rx="8" fill="#E5ECF8"/>

  <path d="M250 560C320 500 380 470 460 510C540 550 600 530 690 450" stroke="#1F4C9C" stroke-width="18" stroke-linecap="round"/>
  <circle cx="250" cy="560" r="11" fill="#1F4C9C"/>
  <circle cx="460" cy="510" r="11" fill="#1F4C9C"/>
  <circle cx="690" cy="450" r="11" fill="#1F4C9C"/>

  <circle cx="1090" cy="300" r="90" fill="#D8E4F6"/>
  <circle cx="1090" cy="300" r="52" fill="#1F4C9C" fill-opacity="0.85"/>
  <rect x="1220" y="262" width="140" height="24" rx="12" fill="#D7E2F3"/>
  <rect x="1220" y="306" width="110" height="16" rx="8" fill="#E5ECF8"/>

  <rect x="940" y="540" width="360" height="22" rx="11" fill="#D7E2F3"/>
  <rect x="940" y="584" width="290" height="16" rx="8" fill="#E5ECF8"/>
  <rect x="940" y="618" width="250" height="16" rx="8" fill="#E5ECF8"/>

  <defs>
    <linearGradient id="bg" x1="80" y1="80" x2="1520" y2="820" gradientUnits="userSpaceOnUse">
      <stop stop-color="#EAF0F8"/>
      <stop offset="0.56" stop-color="#E0E8F4"/>
      <stop offset="1" stop-color="#D7E1F0"/>
    </linearGradient>
  </defs>
</svg>
