<svg width="640" height="640" viewBox="0 0 640 640" fill="none" xmlns="http://www.w3.org/2000/svg">
  <!-- Background -->
  <rect width="640" height="640" rx="48" fill="url(#bg3)"/>
  <!-- Hex grid pattern accent -->
  <g opacity="0.04">
    <path d="M160 80L200 100L200 140L160 160L120 140L120 100Z" stroke="#7C3AED"/>
    <path d="M320 80L360 100L360 140L320 160L280 140L280 100Z" stroke="#7C3AED"/>
    <path d="M480 80L520 100L520 140L480 160L440 140L440 100Z" stroke="#7C3AED"/>
    <path d="M240 160L280 180L280 220L240 240L200 220L200 180Z" stroke="#7C3AED"/>
    <path d="M400 160L440 180L440 220L400 240L360 220L360 180Z" stroke="#7C3AED"/>
  </g>
  <!-- Shield icon badge -->
  <g transform="translate(490, 90)">
    <circle r="42" fill="#7C3AED" opacity="0.10"/>
    <path d="M0-24C0-24-20-14-20 2C-20 18-8 28 0 32C8 28 20 18 20 2C20-14 0-24 0-24Z" stroke="#7C3AED" stroke-width="3" fill="none"/>
    <path d="M-7 2L-2 8L8-4" stroke="#7C3AED" stroke-width="3" stroke-linecap="round" stroke-linejoin="round"/>
  </g>
  <!-- Lock icon badge -->
  <g transform="translate(110, 510)">
    <circle r="36" fill="#7C3AED" opacity="0.10"/>
    <rect x="-12" y="-4" width="24" height="18" rx="3" stroke="#7C3AED" stroke-width="2.5" fill="none"/>
    <path d="M-6-4C-6-4-6-16 0-16C6-16 6-4 6-4" stroke="#7C3AED" stroke-width="2.5" fill="none" stroke-linecap="round"/>
    <circle cy="6" r="2.5" fill="#7C3AED"/>
  </g>
  <!-- Person left (back) -->
  <path d="M140 640C140 640 162 520 196 496C220 478 244 472 260 470C276 472 298 478 322 496C342 512 352 544 356 586" fill="#1E293B"/>
  <circle cx="260" cy="360" r="64" fill="#EAC9A8"/>
  <path d="M196 346C200 296 228 268 260 266C292 268 320 296 324 346C310 328 286 318 260 318C234 318 210 328 196 346Z" fill="#1C1917"/>
  <ellipse cx="244" cy="358" rx="7" ry="6" fill="white"/>
  <ellipse cx="276" cy="358" rx="7" ry="6" fill="white"/>
  <circle cx="245" cy="358" r="4" fill="#3B2F2F"/>
  <circle cx="277" cy="358" r="4" fill="#3B2F2F"/>
  <path d="M248 378C254 386 260 388 264 388C268 388 274 386 280 378" stroke="#C4756B" stroke-width="3" stroke-linecap="round" fill="none"/>
  <!-- Headset on left person -->
  <path d="M196 346C192 346 188 350 188 358C188 366 192 370 196 370" stroke="#6B7280" stroke-width="4" stroke-linecap="round"/>
  <path d="M324 346C328 346 332 350 332 358C332 366 328 370 324 370" stroke="#6B7280" stroke-width="4" stroke-linecap="round"/>
  <path d="M192 352C186 352 182 356 182 362C182 368 186 372 192 372" stroke="#6B7280" stroke-width="5" stroke-linecap="round"/>
  <!-- Person right (back) -->
  <path d="M284 586C288 544 298 512 318 496C342 478 364 472 380 470C396 472 418 478 440 496C478 520 500 640 500 640" fill="#374151"/>
  <circle cx="380" cy="360" r="64" fill="#D4A882"/>
  <path d="M316 340C322 296 348 270 380 268C412 270 438 296 444 340C430 324 406 314 380 314C354 314 330 324 316 340Z" fill="#5B3E2B"/>
  <!-- Shorter hair style -->
  <path d="M316 340C314 326 316 314 320 308C330 316 354 314 380 314C406 314 430 316 440 308C444 314 446 326 444 340" fill="#5B3E2B" opacity="0"/>
  <ellipse cx="364" cy="358" rx="7" ry="6" fill="white"/>
  <ellipse cx="396" cy="358" rx="7" ry="6" fill="white"/>
  <circle cx="365" cy="358" r="4" fill="#3B2F2F"/>
  <circle cx="397" cy="358" r="4" fill="#3B2F2F"/>
  <path d="M368 378C374 386 380 388 384 388C388 388 394 386 400 378" stroke="#C4756B" stroke-width="3" stroke-linecap="round" fill="none"/>
  <!-- Person center (front) -->
  <path d="M210 640C210 640 232 510 268 484C296 464 314 456 320 454C326 456 344 464 372 484C408 510 430 640 430 640" fill="#7C3AED"/>
  <circle cx="320" cy="338" r="74" fill="#F0D0B4"/>
  <!-- Hair -->
  <path d="M246 318C250 264 280 234 320 232C360 234 390 264 394 318C382 296 354 280 320 278C286 280 258 296 246 318Z" fill="#292524"/>
  <path d="M246 318C244 336 244 348 248 356C250 342 250 330 252 318Z" fill="#292524"/>
  <path d="M394 318C396 336 396 348 392 356C390 342 390 330 388 318Z" fill="#292524"/>
  <!-- Eyes -->
  <ellipse cx="298" cy="340" rx="9" ry="8" fill="white"/>
  <ellipse cx="342" cy="340" rx="9" ry="8" fill="white"/>
  <circle cx="300" cy="340" r="5" fill="#3B2F2F"/>
  <circle cx="344" cy="340" r="5" fill="#3B2F2F"/>
  <circle cx="301" cy="338" r="2" fill="white"/>
  <circle cx="345" cy="338" r="2" fill="white"/>
  <!-- Confident smile -->
  <path d="M302 366C310 376 316 378 320 378C324 378 330 376 338 366" stroke="#C4756B" stroke-width="3.5" stroke-linecap="round" fill="none"/>
  <!-- Monitor/dashboard on lapel -->
  <rect x="308" y="468" width="24" height="16" rx="2" fill="#A78BFA" opacity="0.6"/>
  <line x1="312" y1="474" x2="328" y2="474" stroke="white" stroke-width="1.5" opacity="0.7"/>
  <line x1="312" y1="478" x2="322" y2="478" stroke="white" stroke-width="1.5" opacity="0.5"/>
  <defs>
    <linearGradient id="bg3" x1="0" y1="0" x2="640" y2="640" gradientUnits="userSpaceOnUse">
      <stop stop-color="#F5F3FF"/>
      <stop offset="1" stop-color="#EDE9FE"/>
    </linearGradient>
  </defs>
</svg>
