<svg width="640" height="640" viewBox="0 0 640 640" fill="none" xmlns="http://www.w3.org/2000/svg">
  <!-- Background with subtle gradient -->
  <rect width="640" height="640" rx="48" fill="url(#bg1)"/>
  <!-- Decorative geometric accent -->
  <circle cx="520" cy="120" r="80" fill="#1E40AF" opacity="0.06"/>
  <circle cx="100" cy="540" r="60" fill="#1E40AF" opacity="0.04"/>
  <!-- Body / Suit -->
  <path d="M180 640C180 640 200 470 240 440C270 418 300 410 320 408C340 410 370 418 400 440C440 470 460 640 460 640" fill="#1E293B"/>
  <!-- Shirt collar -->
  <path d="M280 420L320 460L360 420" fill="#F8FAFC" stroke="#E2E8F0" stroke-width="2"/>
  <!-- Tie -->
  <path d="M312 450L320 460L328 450L322 540L320 546L318 540Z" fill="#2563EB"/>
  <!-- Neck -->
  <path d="M296 380C296 380 304 410 320 410C336 410 344 380 344 380" fill="#E8C4A8"/>
  <!-- Head -->
  <ellipse cx="320" cy="280" rx="100" ry="110" fill="#EDCDB2"/>
  <!-- Hair - styled professional -->
  <path d="M220 260C220 180 260 130 320 125C380 130 420 180 420 260C420 240 410 200 390 180C370 165 350 158 320 155C290 158 270 165 250 180C230 200 220 240 220 260Z" fill="#1C1917"/>
  <!-- Hair side detail -->
  <path d="M220 260C218 280 218 300 222 310C224 290 224 270 226 260Z" fill="#1C1917"/>
  <path d="M420 260C422 280 422 300 418 310C416 290 416 270 414 260Z" fill="#1C1917"/>
  <!-- Eyebrows -->
  <path d="M262 248C270 242 285 240 298 244" stroke="#2C1810" stroke-width="5" stroke-linecap="round"/>
  <path d="M342 244C355 240 370 242 378 248" stroke="#2C1810" stroke-width="5" stroke-linecap="round"/>
  <!-- Eyes -->
  <ellipse cx="280" cy="268" rx="14" ry="12" fill="white"/>
  <ellipse cx="360" cy="268" rx="14" ry="12" fill="white"/>
  <circle cx="282" cy="268" r="7" fill="#3B2F2F"/>
  <circle cx="362" cy="268" r="7" fill="#3B2F2F"/>
  <circle cx="284" cy="266" r="2.5" fill="white"/>
  <circle cx="364" cy="266" r="2.5" fill="white"/>
  <!-- Nose -->
  <path d="M316 278C316 278 310 306 308 312C312 316 320 318 328 316C332 312 324 306 324 278" stroke="#D4A882" stroke-width="2.5" fill="none" stroke-linecap="round"/>
  <!-- Mouth - confident smile -->
  <path d="M290 334C300 346 312 350 320 350C328 350 340 346 350 334" stroke="#C4756B" stroke-width="4" stroke-linecap="round" fill="none"/>
  <!-- Ears -->
  <ellipse cx="218" cy="280" rx="14" ry="20" fill="#EDCDB2"/>
  <ellipse cx="218" cy="280" rx="8" ry="12" fill="#DEB896"/>
  <ellipse cx="422" cy="280" rx="14" ry="20" fill="#EDCDB2"/>
  <ellipse cx="422" cy="280" rx="8" ry="12" fill="#DEB896"/>
  <!-- Glasses - modern frames -->
  <rect x="252" y="254" width="56" height="32" rx="8" stroke="#374151" stroke-width="4" fill="none"/>
  <rect x="332" y="254" width="56" height="32" rx="8" stroke="#374151" stroke-width="4" fill="none"/>
  <path d="M308 268H332" stroke="#374151" stroke-width="3"/>
  <path d="M252 268H222" stroke="#374151" stroke-width="3"/>
  <path d="M388 268H418" stroke="#374151" stroke-width="3"/>
  <defs>
    <linearGradient id="bg1" x1="0" y1="0" x2="640" y2="640" gradientUnits="userSpaceOnUse">
      <stop stop-color="#EFF6FF"/>
      <stop offset="1" stop-color="#DBEAFE"/>
    </linearGradient>
  </defs>
</svg>
